<?xml version="1.0" standalone="no"?>
<!DOCTYPE svg PUBLIC "-//W3C//DTD SVG 20010904//EN"
 "http://www.w3.org/TR/2001/REC-SVG-20010904/DTD/svg10.dtd">
<svg version="1.0" xmlns="http://www.w3.org/2000/svg"
 width="240.000000pt" height="240.000000pt" viewBox="0 0 240.000000 240.000000"
 preserveAspectRatio="xMidYMid meet">
<metadata>
Created by potrace 1.16, written by Peter Selinger 2001-2019
</metadata>
<g transform="translate(0.000000,240.000000) scale(0.100000,-0.100000)"
fill="#000000" stroke="none">
<path d="M1060 2311 c-30 -10 -127 -60 -215 -111 -88 -51 -200 -117 -250 -145
-49 -29 -126 -73 -169 -98 -146 -84 -212 -157 -248 -270 -17 -55 -18 -98 -18
-490 0 -476 0 -480 66 -583 39 -63 95 -111 200 -171 43 -25 135 -78 204 -118
69 -40 184 -106 255 -147 150 -87 210 -108 310 -108 95 0 150 18 274 90 57 33
106 60 108 60 2 0 36 20 76 44 39 24 137 80 217 126 236 135 264 158 322 277
l33 68 0 465 0 465 -34 69 c-59 120 -80 138 -346 291 -392 227 -483 276 -529
290 -67 20 -188 18 -256 -4z m248 -408 c58 -27 94 -68 118 -134 12 -35 14 -65
9 -146 l-7 -103 80 0 c57 0 93 -6 124 -19 122 -53 175 -199 117 -321 -13 -27
-27 -50 -32 -50 -4 0 -5 4 -2 10 3 6 -1 7 -10 4 -10 -4 -12 -10 -6 -18 6 -7 6
-17 1 -26 -6 -8 -10 -12 -10 -7 0 4 -12 0 -27 -9 -25 -14 -26 -14 -9 0 11 9
15 16 8 16 -14 0 -62 -69 -231 -330 -68 -105 -136 -200 -151 -210 -43 -31
-104 -40 -162 -25 -59 15 -102 53 -124 112 -17 43 -16 63 3 216 l6 47 -95 0
c-113 0 -152 13 -196 67 -18 21 -38 46 -47 56 -8 9 -15 22 -15 27 0 6 -6 10
-14 10 -8 0 -17 7 -20 15 -8 21 13 112 29 128 7 8 14 20 16 29 8 32 335 590
363 619 77 79 175 94 284 42z"/>
</g>
</svg>
